<svg width="270" height="271" viewBox="0 0 270 271" fill="none" xmlns="http://www.w3.org/2000/svg">
<g clip-path="url(#clip0_27_1079)">
<path d="M220.962 116.539C220.962 116.539 243.942 124.559 240.822 144.571C237.702 164.584 215 174.056 211.987 172.119C208.975 170.181 227.587 159.854 229.417 145.434C231.247 131.014 215.7 130.471 215.7 130.471L220.962 116.539Z" fill="#FF8D76"/>
<path d="M237.28 175.804C237.28 175.804 239.457 151.969 212.937 152.889C200.64 174.181 212.937 185.711 212.937 185.711L237.28 175.804Z" fill="#FFD3B3"/>
<path d="M74.96 70.0236C74.96 70.0236 70.285 58.4936 66.505 54.9061C62.725 51.3186 59.65 49.7186 57.92 56.4436C56.19 63.1686 52.9875 74.9561 54.4625 81.1711C67.6575 75.9811 74.96 70.0236 74.96 70.0236Z" fill="#FF8D76"/>
<path d="M75.305 141.606C75.305 141.606 65.8875 151.706 58.805 152.476C51.7225 153.246 44.0275 153.201 41.305 150.083C38.5825 146.966 38.055 141.413 39.34 138.896C40.625 136.378 48.4375 134.198 52.495 132.318C65 133.131 75.305 141.606 75.305 141.606Z" fill="#FF8D76"/>
<path d="M97.1225 69.0637C97.1225 69.0637 100.775 58.5587 102.75 55.2887C104.725 52.0187 106.083 46.7687 110.693 48.6262C115.303 50.4837 120.11 64.6412 120.443 70.9187C120.775 77.1962 123.582 87.5087 125.823 87.5737C128.062 87.6387 160.288 77.3887 182.705 79.3737C205.122 81.3587 215.565 91.1637 220.562 104.809C225.56 118.454 224.852 135.491 214.605 142.601C204.357 149.711 204.035 150.601 205.122 152.209C206.21 153.816 209.095 155.349 206.533 158.616C203.97 161.884 196.987 161.691 187.957 160.281C178.927 158.871 165.735 157.464 160.35 157.719C154.965 157.974 150.035 157.719 148.24 155.414C146.445 153.109 146.288 150.929 146.64 149.776C138.64 150.351 124.798 149.486 117.685 146.894C109.518 155.156 103.465 158.424 97.1225 159.394C90.78 160.364 82.3275 159.779 79.8275 157.664C77.3275 155.549 78.7725 145.321 87.9 141.116C75.7925 146.904 61.1225 144.866 53.5 139.984C44.5375 134.261 41.645 125.304 43.695 117.916C45.1625 112.619 46.695 109.416 47.075 100.056C47.455 90.6962 49.465 78.8312 57.665 74.1337C65.865 69.4362 76.925 65.6687 97.1225 69.0637Z" fill="#FEA691"/>
<path d="M86.105 67.8384C86.105 67.8384 77.395 74.0384 74.96 82.2884C72.525 90.5384 70.9025 105.178 76.1125 113.206C81.3225 121.233 93.0325 121.456 95.7575 121.748C101.508 122.366 104.213 129.093 100.258 133.191C96.3025 137.288 77.295 146.788 77.295 146.788L51.475 145.391L33.835 125.661L42.29 117.548C42.29 117.548 49.09 120.858 54.76 118.486C60.43 116.113 61.3375 108.666 62.79 99.9109C64.2425 91.1559 63.7375 74.7909 79.79 67.8134C84.4825 64.7284 86.105 67.8384 86.105 67.8384Z" fill="#FFD3B3"/>
<path d="M122.367 138.846C122.367 138.846 120.447 143.846 118.617 146.361" stroke="#FF8D76" stroke-width="2.43" stroke-miterlimit="10" stroke-linecap="round"/>
<path d="M182.702 115.376C182.702 115.376 170.34 117.938 166.952 127.931C163.565 137.923 170.925 145.803 177.715 148.431" stroke="#FF8D76" stroke-width="2.43" stroke-miterlimit="10" stroke-linecap="round"/>
<path d="M170.7 143.718C170.7 143.718 163.167 144.131 157.145 143.718C151.122 143.306 148.112 146.253 146.645 149.776" stroke="#FF8D76" stroke-width="2.43" stroke-miterlimit="10" stroke-linecap="round"/>
<path d="M106.347 72.3312C106.347 72.3312 111.505 69.5812 111.538 64.9012C111.57 60.2212 110.96 54.9012 109.288 54.4012C107.615 53.9012 100.578 64.5962 101.038 71.0612C104.188 72.1762 106.347 72.3312 106.347 72.3312Z" fill="#FFD3B3"/>
<path d="M97.1225 69.0635C97.1225 69.0635 102.623 70.536 105.708 72.331" stroke="#FF8D76" stroke-width="2.43" stroke-miterlimit="10" stroke-linecap="round"/>
<path d="M177.068 182.349C177.068 182.349 150.835 172.849 137.095 162.556C136.765 164.695 136.229 166.798 135.495 168.834L130.05 167.809L128.193 172.451L112.305 171.651L108.845 176.901L102.75 178.634C102.75 178.634 113.928 199.451 129.11 209.254C130.07 206.819 131 205.889 132.11 205.921C133.22 205.954 137.61 206.626 138.708 206.241C139.805 205.856 137.915 201.054 137.915 201.054C137.915 201.054 147.613 200.444 152.61 198.554C157.608 196.664 161.16 193.076 162.61 192.274C164.06 191.471 171.36 190.546 171.963 189.524C172.565 188.501 169.975 187.216 170.938 185.486C171.9 183.756 177.068 182.349 177.068 182.349Z" fill="#E1ECFF"/>
<path d="M198.802 178.591L194.96 183.204L187.315 180.896L189.407 179.274L188.212 177.394L198.802 178.591Z" fill="#E1ECFF"/>
<path d="M87.17 168.788C87.17 168.788 83.7975 169.898 81.1925 172.538C81.9972 172.706 82.7565 173.044 83.4193 173.53C84.0822 174.016 84.6331 174.639 85.035 175.356C85.035 175.356 82.6 175.313 81.1925 176.296C79.785 177.278 80.55 183.471 79.4825 188.508C78.415 193.546 77.605 197.221 77.605 198.258C77.605 199.296 74.7 205.091 74.7 205.091C74.7 205.091 43.91 207.911 23.7975 199.626C27.8525 198.473 33.4475 195.953 33.4475 195.953L30.885 193.133C30.885 193.133 37.975 189.503 38.83 188.608C39.685 187.713 35.25 168.788 35.25 168.788C35.25 168.788 43.235 169.288 50.11 168.788C56.985 168.288 72.28 163.398 87.17 168.788Z" fill="#E1ECFF"/>
<path d="M104.555 202.721C104.555 202.721 99.7825 196.699 93.0875 192.471C91.23 197.436 89.6925 207.909 89.6925 207.909C89.6925 207.909 93.665 208.774 97.1225 207.909C100.58 207.044 97.38 203.234 104.555 202.721Z" fill="#E1ECFF"/>
<path d="M73.3825 117.371C71.9075 115.303 61 114.561 59.4425 116.838C57.885 119.116 61.9125 124.056 65.8225 124.056C69.7325 124.056 75.3575 120.143 73.3825 117.371Z" fill="#413F4C"/>
<path d="M86.105 115.441C84.4426 115.441 83.095 114.093 83.095 112.431C83.095 110.769 84.4426 109.421 86.105 109.421C87.7674 109.421 89.115 110.769 89.115 112.431C89.115 114.093 87.7674 115.441 86.105 115.441Z" fill="#413F4C"/>
<path d="M52.4725 115.441C50.8101 115.441 49.4625 114.093 49.4625 112.431C49.4625 110.769 50.8101 109.421 52.4725 109.421C54.1349 109.421 55.4825 110.769 55.4825 112.431C55.4825 114.093 54.1349 115.441 52.4725 115.441Z" fill="#413F4C"/>
<path d="M77.32 101.788C76.96 99.6083 80.4625 98.3258 83.355 98.1383C86.2475 97.9508 88.9625 98.7383 88.895 100.016C88.8275 101.293 78.02 106.018 77.32 101.788Z" fill="#FFD3B3"/>
<path d="M61.065 101.741C61.565 99.5959 58.7175 98.4434 56.3 98.3434C53.8825 98.2434 51.53 99.0934 51.475 100.343C51.42 101.593 60.11 105.903 61.065 101.741Z" fill="#FFD3B3"/>
<path d="M72.4375 130.624C72.4375 130.624 68.0925 130.154 65.975 126.779C63.475 130.239 59.8425 129.426 59.8425 129.426C59.8425 129.426 59.0925 136.259 65.2875 136.771C71.785 137.311 72.4375 130.624 72.4375 130.624Z" fill="#FF6EA9"/>
<path d="M65.95 126.789C65.95 126.789 65.45 130.889 65.3525 133.194" stroke="#EA4E95" stroke-width="1.89" stroke-miterlimit="10" stroke-linecap="round"/>
<path d="M77.4375 129.599C77.4375 129.599 70.6375 132.989 65.9375 126.779C62.745 131.424 56.285 128.999 56.285 128.999" stroke="#413F4C" stroke-width="2.16" stroke-linecap="round" stroke-linejoin="round"/>
<path d="M148.45 169.616L132.995 176.884L142.562 187.559L164.555 177.321L148.45 169.616Z" fill="#99ADF9"/>
<path d="M126.205 180.298L109.167 187.558" stroke="#99ADF9" stroke-width="1.89" stroke-miterlimit="10" stroke-linecap="round"/>
<path d="M66.69 176.061L63.3275 194.276" stroke="#99ADF9" stroke-width="1.89" stroke-miterlimit="10" stroke-linecap="round"/>
<path d="M60 176.061L56.6375 194.276" stroke="#99ADF9" stroke-width="1.89" stroke-miterlimit="10" stroke-linecap="round"/>
<path d="M53.3075 176.061L49.945 194.276" stroke="#99ADF9" stroke-width="1.89" stroke-miterlimit="10" stroke-linecap="round"/>
<path d="M129.777 184.476L112.738 191.736" stroke="#99ADF9" stroke-width="1.89" stroke-miterlimit="10" stroke-linecap="round"/>
<path d="M132.995 188.841L115.958 196.101" stroke="#99ADF9" stroke-width="1.89" stroke-miterlimit="10" stroke-linecap="round"/>
<path d="M94.39 152.889C94.39 152.889 90.945 154.004 91.67 158.434" stroke="#FF8D76" stroke-width="2.43" stroke-miterlimit="10" stroke-linecap="round"/>
<path d="M85.3525 152.128C85.3525 152.128 83.0375 153.403 83.7625 157.833" stroke="#FF8D76" stroke-width="2.43" stroke-miterlimit="10" stroke-linecap="round"/>
<path d="M150.436 66.4483C154.135 66.4483 157.134 63.5212 157.134 59.9104C157.134 56.2997 154.135 53.3726 150.436 53.3726C146.737 53.3726 143.739 56.2997 143.739 59.9104C143.739 63.5212 146.737 66.4483 150.436 66.4483Z" fill="#A2DAFD"/>
<path d="M156.761 49.9482L152.988 48.4954C151.393 47.8727 150.543 46.2642 150.915 44.6557L161.386 0.758651C161.864 -1.16119 163.884 -2.25084 165.798 -1.62818L180.362 3.0936C182.328 3.71625 183.285 5.94742 182.328 7.76349L161.067 48.3397C160.27 49.8963 158.409 50.5709 156.761 49.9482Z" fill="#A2DAFD"/>
</g>
<defs>
<clipPath id="clip0_27_1079">
<rect width="270" height="270" fill="white" transform="matrix(-1 0 0 1 270 0.788574)"/>
</clipPath>
</defs>
</svg>
