<svg width="573" height="166" viewBox="0 0 573 166" fill="none" xmlns="http://www.w3.org/2000/svg">
<path d="M42.8061 39.8381C31.8099 39.8381 26.3117 50.4442 26.3117 71.6563V80.0631C26.3117 90.1371 27.7661 98.0473 30.6748 103.794C33.5835 109.469 37.8755 112.307 43.551 112.307C51.3548 112.307 58.5201 104.716 65.0469 89.5341H66.9624L66.2175 113.265H65.0469C64.6213 112.484 64.2311 111.952 63.8764 111.668C63.5216 111.314 62.9896 111.136 62.2801 111.136C61.6416 111.136 59.0877 111.704 54.6182 112.839C50.1488 113.903 45.6084 114.435 40.9971 114.435C29.4333 114.435 20.4589 111.314 14.074 105.071C7.76001 98.8277 4.60302 89.4631 4.60302 76.9771C4.60302 64.42 7.90189 54.7362 14.4996 47.9257C21.1683 41.1151 30.1072 37.7098 41.3163 37.7098C45.6439 37.7098 49.865 38.2773 53.9797 39.4124C58.1654 40.4766 60.613 41.0087 61.3224 41.0087C62.0318 41.0087 62.5639 40.8668 62.9186 40.583C63.2733 40.2283 63.6635 39.6607 64.0892 38.8804H65.2598L66.1111 61.9725H64.1956C61.0031 54.8072 57.7043 49.3445 54.299 45.5845C50.9646 41.7536 47.1337 39.8381 42.8061 39.8381ZM90.4195 55.3747C86.6595 55.3747 83.9636 54.417 82.3319 52.5015C80.7712 50.586 79.9908 48.2094 79.9908 45.3717C79.9908 42.534 80.8421 40.1928 82.5448 38.3483C84.3184 36.5038 86.9787 35.5815 90.5259 35.5815C94.0731 35.5815 96.769 36.4328 98.6135 38.1355C100.458 39.7672 101.38 42.1438 101.38 45.2653C101.38 48.3159 100.493 50.7634 98.7199 52.6079C96.9463 54.4525 94.1795 55.3747 90.4195 55.3747ZM74.3508 62.7174H100.423V111.456H106.382V113.371H74.7764V111.456H80.6293V64.6329H74.3508V62.7174ZM140.795 32.9211C138.099 32.9211 136.325 33.9498 135.474 36.0071C134.623 37.9936 134.197 41.2215 134.197 45.6909V62.7174H148.244V64.6329H134.197V111.456H147.18V113.371H108.551V111.456H114.404V64.6329H108.232V62.7174H114.404V62.2917C114.404 52.0759 116.355 44.343 120.257 39.0932C124.158 33.7724 130.685 31.112 139.837 31.112C145.867 31.112 150.195 32.3181 152.82 34.7302C155.445 37.0713 156.757 39.8026 156.757 42.9241C156.757 46.0457 155.941 48.3868 154.309 49.9476C152.678 51.5083 150.514 52.2887 147.818 52.2887C145.122 52.2887 143.029 51.6147 141.54 50.2668C140.121 48.8479 139.411 47.2517 139.411 45.4781C139.411 43.6336 139.624 41.86 140.05 40.1573H144.094C145.512 35.3332 144.413 32.9211 140.795 32.9211ZM184.831 65.697C182.206 65.697 179.9 67.3997 177.914 70.805C175.927 74.2103 174.934 78.254 174.934 82.9363V111.456H182.49V113.371H149.288V111.456H155.141V64.6329H149.288V62.7174H174.934V72.9333C175.856 69.3151 177.63 66.5483 180.255 64.6329C182.88 62.6465 185.859 61.6532 189.194 61.6532C192.528 61.6532 195.224 62.611 197.281 64.5265C199.41 66.371 200.474 69.0314 200.474 72.5076C200.474 75.9129 199.693 78.5378 198.133 80.3823C196.572 82.2269 194.16 83.1491 190.896 83.1491C187.704 83.1491 185.327 82.085 183.767 79.9567C182.277 77.8284 182.099 74.8842 183.234 71.1242H187.065C188.839 67.5061 188.094 65.697 184.831 65.697ZM225.957 88.3635H229.043V80.1695C229.043 73.4299 228.653 68.925 227.872 66.6548C227.163 64.3136 225.744 63.1431 223.616 63.1431C222.339 63.1431 221.168 63.4978 220.104 64.2072C219.111 64.8457 218.614 65.768 218.614 66.974C218.614 68.1091 218.827 69.2797 219.253 70.4857H221.913C222.481 71.9755 222.764 73.7846 222.764 75.9129C222.764 77.9703 221.878 79.7793 220.104 81.3401C218.33 82.8299 216.096 83.5748 213.4 83.5748C207.299 83.5748 204.248 80.6306 204.248 74.7423C204.248 66.0163 211.662 61.6532 226.489 61.6532C234.931 61.6532 240.749 63.1076 243.941 66.0163C247.204 68.854 248.836 74.1038 248.836 81.7657V103.368C248.836 107.057 249.865 108.902 251.922 108.902C254.334 108.902 255.753 105.248 256.179 97.9409L257.775 98.0473C257.491 104.29 256.321 108.582 254.263 110.924C252.206 113.265 248.836 114.435 244.154 114.435C235.641 114.435 230.746 111.81 229.469 106.561C228.546 109.256 227.163 111.243 225.318 112.52C223.474 113.797 220.778 114.435 217.231 114.435C206.731 114.435 201.481 110.143 201.481 101.559C201.481 96.522 203.468 93.0812 207.441 91.2367C211.484 89.3212 217.656 88.3635 225.957 88.3635ZM221.7 101.453C221.7 105.142 221.878 107.518 222.232 108.582C222.658 109.647 223.403 110.179 224.467 110.179C225.602 110.179 226.631 109.292 227.553 107.518C228.546 105.674 229.043 103.155 229.043 99.9628V90.0661H228.298C223.9 90.0661 221.7 93.2941 221.7 99.7499V101.453ZM280.423 91.3431C280.423 98.7922 280.813 103.758 281.594 106.241C282.374 108.653 283.793 109.859 285.85 109.859C287.979 109.859 289.788 108.937 291.278 107.093C292.838 105.248 293.619 102.517 293.619 98.8986V75.7001C293.619 72.6495 293.016 70.0601 291.81 67.9317C290.604 65.8034 288.83 64.7393 286.489 64.7393C284.148 64.7393 282.552 66.3 281.7 69.4216C280.849 72.5431 280.423 78.0057 280.423 85.8095V91.3431ZM295.002 113.371L293.832 105.922C291.419 111.598 286.524 114.435 279.146 114.435C273.045 114.435 268.292 112.236 264.887 107.837C261.552 103.439 259.885 96.8767 259.885 88.1507C259.885 70.4857 266.908 61.6532 280.955 61.6532C287.198 61.6532 291.313 63.3914 293.299 66.8676V35.4751H286.808V33.5596H313.412V111.456H318.626V113.371H295.002ZM355.754 92.4073V83.362C355.754 76.4804 355.363 71.4789 354.583 68.3574C353.874 65.1649 352.171 63.5687 349.475 63.5687C347.914 63.5687 346.637 64.0299 345.644 64.9521C344.722 65.8034 344.048 67.2578 343.622 69.3151C342.984 72.5076 342.665 77.3672 342.665 83.894V92.1944C342.665 99.9273 342.877 104.574 343.303 106.135C343.8 107.696 344.296 108.973 344.793 109.966C345.573 111.668 347.099 112.52 349.369 112.52C352.136 112.52 353.945 110.924 354.796 107.731C355.434 105.461 355.754 100.353 355.754 92.4073ZM349.156 114.435C340.288 114.435 333.584 112.165 329.043 107.625C324.503 103.084 322.233 96.5929 322.233 88.1507C322.233 79.6374 324.645 73.1106 329.469 68.5702C334.364 63.9589 341.21 61.6532 350.007 61.6532C358.804 61.6532 365.367 63.7815 369.694 68.0382C374.022 72.2238 376.185 78.6442 376.185 87.2993C376.185 105.39 367.176 114.435 349.156 114.435ZM414.704 65.697C412.079 65.697 409.774 67.3997 407.787 70.805C405.801 74.2103 404.808 78.254 404.808 82.9363V111.456H412.363V113.371H379.162V111.456H385.015V64.6329H379.162V62.7174H404.808V72.9333C405.73 69.3151 407.504 66.5483 410.129 64.6329C412.753 62.6465 415.733 61.6532 419.067 61.6532C422.402 61.6532 425.098 62.611 427.155 64.5265C429.283 66.371 430.347 69.0314 430.347 72.5076C430.347 75.9129 429.567 78.5378 428.006 80.3823C426.446 82.2269 424.033 83.1491 420.77 83.1491C417.578 83.1491 415.201 82.085 413.64 79.9567C412.15 77.8284 411.973 74.8842 413.108 71.1242H416.939C418.713 67.5061 417.968 65.697 414.704 65.697Z" fill="#F774B9"/>
<path d="M312.783 124.13H325.882V129.13C327.077 125.434 329.704 123.586 333.762 123.586C337.857 123.586 340.339 125.543 341.208 129.456C342.476 125.543 345.139 123.586 349.198 123.586C354.524 123.586 357.187 126.612 357.187 132.663V149.022H360.23V150H345.176V149.022H347.078V131.358C347.078 128.604 346.842 126.992 346.371 126.521C346.154 126.304 345.864 126.195 345.502 126.195C344.451 126.195 343.527 126.902 342.73 128.315C341.933 129.728 341.534 131.521 341.534 133.695V149.022H343.491V150H329.523V149.022H331.425V131.358C331.425 128.604 331.19 126.992 330.719 126.521C330.501 126.304 330.211 126.195 329.849 126.195C328.835 126.195 327.911 126.974 327.077 128.532C326.28 130.054 325.882 131.884 325.882 134.021V149.022H327.838V150H312.783V149.022H315.773V125.108H312.783V124.13ZM379.399 150.543C374.725 150.543 371.211 149.348 368.855 146.956C366.537 144.529 365.377 141.177 365.377 136.902C365.377 132.59 366.681 129.293 369.29 127.01C371.935 124.728 375.287 123.586 379.345 123.586C387.57 123.586 391.519 127.717 391.193 135.978H375.866V138.098C375.866 141.648 376.319 144.33 377.225 146.141C378.131 147.953 379.707 148.859 381.954 148.859C386.157 148.859 388.91 146.612 390.215 142.119L391.193 142.282C390.505 144.891 389.255 146.92 387.443 148.37C385.667 149.819 382.986 150.543 379.399 150.543ZM375.921 134.891H381.519V132.228C381.519 129.293 381.338 127.3 380.975 126.249C380.649 125.162 379.961 124.619 378.91 124.619C377.896 124.619 377.135 125.199 376.627 126.358C376.156 127.481 375.921 129.438 375.921 132.228V134.891ZM397.314 124.13H410.412V129.13C410.992 127.463 411.88 126.123 413.075 125.108C414.271 124.093 416.083 123.586 418.51 123.586C424.126 123.586 426.934 126.612 426.934 132.663V149.022H429.978V150H414.597V149.022H416.825V131.358C416.825 129.184 416.681 127.789 416.391 127.173C416.101 126.521 415.575 126.195 414.815 126.195C413.655 126.195 412.622 126.956 411.717 128.478C410.847 129.999 410.412 131.847 410.412 134.021V149.022H412.749V150H397.314V149.022H400.303V125.108H397.314V124.13ZM436.022 150.543V140.815H436.674C437.616 143.967 438.885 146.177 440.479 147.446C442.073 148.714 444.066 149.348 446.457 149.348C450.153 149.348 452.001 148.17 452.001 145.815C452.001 144.801 451.548 144.04 450.642 143.532C449.229 142.735 447.417 142.119 445.207 141.685C442.743 141.032 440.678 140.163 439.011 139.076C437.019 137.771 436.022 135.706 436.022 132.88C436.022 130.054 436.892 127.807 438.631 126.141C440.37 124.438 442.689 123.586 445.588 123.586C447.363 123.586 449.193 124.003 451.077 124.836C451.765 125.126 452.291 125.271 452.653 125.271C453.015 125.271 453.323 125.144 453.577 124.891C453.831 124.637 454.139 124.166 454.501 123.478H455.099V131.793H454.447C452.599 127.083 449.736 124.728 445.859 124.728C444.157 124.728 442.888 125.036 442.055 125.652C441.222 126.231 440.805 126.974 440.805 127.88C440.805 128.423 440.932 128.858 441.185 129.184C441.439 129.474 441.638 129.691 441.783 129.836C441.928 129.981 442.164 130.144 442.49 130.326C442.816 130.47 443.088 130.597 443.305 130.706C443.522 130.778 443.849 130.887 444.283 131.032C444.754 131.177 445.099 131.268 445.316 131.304C447.78 131.92 449.555 132.463 450.642 132.934C451.729 133.369 452.762 133.913 453.74 134.565C455.733 135.942 456.729 138.17 456.729 141.25C456.729 144.293 455.823 146.612 454.012 148.206C452.2 149.764 449.718 150.543 446.566 150.543C444.32 150.543 442.146 150.018 440.044 148.967C439.609 148.678 439.265 148.533 439.011 148.533C438.214 148.533 437.435 149.203 436.674 150.543H436.022ZM475.458 137.228H477.034V133.043C477.034 129.601 476.835 127.3 476.436 126.141C476.074 124.945 475.349 124.347 474.262 124.347C473.61 124.347 473.012 124.528 472.469 124.891C471.961 125.217 471.708 125.688 471.708 126.304C471.708 126.883 471.816 127.481 472.034 128.097H473.392C473.682 128.858 473.827 129.782 473.827 130.869C473.827 131.92 473.374 132.844 472.469 133.641C471.563 134.402 470.421 134.782 469.045 134.782C465.928 134.782 464.37 133.279 464.37 130.271C464.37 125.815 468.157 123.586 475.729 123.586C480.041 123.586 483.012 124.329 484.643 125.815C486.309 127.264 487.143 129.945 487.143 133.858V144.891C487.143 146.775 487.668 147.717 488.719 147.717C489.951 147.717 490.676 145.851 490.893 142.119L491.708 142.174C491.563 145.362 490.965 147.554 489.915 148.75C488.864 149.946 487.143 150.543 484.751 150.543C480.404 150.543 477.903 149.203 477.251 146.522C476.78 147.898 476.074 148.913 475.132 149.565C474.19 150.217 472.813 150.543 471.001 150.543C465.639 150.543 462.957 148.351 462.957 143.967C462.957 141.395 463.972 139.637 466.001 138.695C468.066 137.717 471.218 137.228 475.458 137.228ZM473.284 143.913C473.284 145.797 473.374 147.011 473.556 147.554C473.773 148.098 474.153 148.37 474.697 148.37C475.277 148.37 475.802 147.917 476.273 147.011C476.78 146.069 477.034 144.782 477.034 143.152V138.098H476.653C474.407 138.098 473.284 139.746 473.284 143.043V143.913ZM509.417 124.13V145.326C509.417 151.268 508.384 155.797 506.319 158.913C504.29 162.029 500.956 163.587 496.319 163.587C493.311 163.587 491.119 162.989 489.742 161.794C488.329 160.598 487.623 159.203 487.623 157.609C487.623 156.015 488.094 154.783 489.036 153.913C489.978 153.08 491.155 152.663 492.568 152.663C493.982 152.663 495.05 153.044 495.775 153.804C496.463 154.602 496.808 155.471 496.808 156.413C496.808 157.355 496.699 158.261 496.482 159.131H494.416C493.837 160.109 493.764 160.942 494.199 161.631C494.597 162.319 495.34 162.663 496.427 162.663C497.55 162.663 498.311 162.029 498.71 160.761C499.108 159.529 499.308 156.957 499.308 153.044V125.108H495.775V124.13H509.417ZM504.254 120.38C502.333 120.38 500.956 119.89 500.123 118.912C499.326 117.934 498.927 116.72 498.927 115.271C498.927 113.821 499.362 112.626 500.232 111.684C501.138 110.742 502.496 110.271 504.308 110.271C506.12 110.271 507.496 110.705 508.438 111.575C509.38 112.408 509.852 113.622 509.852 115.216C509.852 116.774 509.399 118.024 508.493 118.967C507.587 119.909 506.174 120.38 504.254 120.38ZM531.567 150.543C526.893 150.543 523.378 149.348 521.023 146.956C518.704 144.529 517.544 141.177 517.544 136.902C517.544 132.59 518.849 129.293 521.458 127.01C524.103 124.728 527.454 123.586 531.512 123.586C539.737 123.586 543.686 127.717 543.36 135.978H528.034V138.098C528.034 141.648 528.487 144.33 529.393 146.141C530.298 147.953 531.875 148.859 534.121 148.859C538.324 148.859 541.078 146.612 542.382 142.119L543.36 142.282C542.672 144.891 541.422 146.92 539.61 148.37C537.835 149.819 535.154 150.543 531.567 150.543ZM528.088 134.891H533.686V132.228C533.686 129.293 533.505 127.3 533.143 126.249C532.817 125.162 532.128 124.619 531.077 124.619C530.063 124.619 529.302 125.199 528.795 126.358C528.324 127.481 528.088 129.438 528.088 132.228V134.891ZM550.092 150.543V140.815H550.744C551.686 143.967 552.954 146.177 554.549 147.446C556.143 148.714 558.136 149.348 560.527 149.348C564.223 149.348 566.071 148.17 566.071 145.815C566.071 144.801 565.618 144.04 564.712 143.532C563.299 142.735 561.487 142.119 559.277 141.685C556.813 141.032 554.748 140.163 553.081 139.076C551.088 137.771 550.092 135.706 550.092 132.88C550.092 130.054 550.962 127.807 552.701 126.141C554.44 124.438 556.759 123.586 559.658 123.586C561.433 123.586 563.263 124.003 565.147 124.836C565.835 125.126 566.361 125.271 566.723 125.271C567.085 125.271 567.393 125.144 567.647 124.891C567.901 124.637 568.208 124.166 568.571 123.478H569.169V131.793H568.516C566.669 127.083 563.806 124.728 559.929 124.728C558.226 124.728 556.958 125.036 556.125 125.652C555.291 126.231 554.875 126.974 554.875 127.88C554.875 128.423 555.002 128.858 555.255 129.184C555.509 129.474 555.708 129.691 555.853 129.836C555.998 129.981 556.234 130.144 556.56 130.326C556.886 130.47 557.157 130.597 557.375 130.706C557.592 130.778 557.918 130.887 558.353 131.032C558.824 131.177 559.168 131.268 559.386 131.304C561.85 131.92 563.625 132.463 564.712 132.934C565.799 133.369 566.832 133.913 567.81 134.565C569.803 135.942 570.799 138.17 570.799 141.25C570.799 144.293 569.893 146.612 568.082 148.206C566.27 149.764 563.788 150.543 560.636 150.543C558.389 150.543 556.215 150.018 554.114 148.967C553.679 148.678 553.335 148.533 553.081 148.533C552.284 148.533 551.505 149.203 550.744 150.543H550.092Z" fill="#FFB6D9"/>
</svg>
