<svg width="391" height="141" viewBox="0 0 391 141" fill="none" xmlns="http://www.w3.org/2000/svg">
<path d="M106.589 105.025H117.732V109.279C118.749 106.135 120.983 104.563 124.435 104.563C127.918 104.563 130.03 106.227 130.769 109.556C131.848 106.227 134.114 104.563 137.566 104.563C142.096 104.563 144.362 107.137 144.362 112.284V126.2H146.951V127.032H134.144V126.2H135.763V111.174C135.763 108.832 135.562 107.46 135.161 107.06C134.977 106.875 134.73 106.782 134.422 106.782C133.528 106.782 132.742 107.383 132.064 108.585C131.386 109.787 131.047 111.313 131.047 113.162V126.2H132.711V127.032H120.829V126.2H122.447V111.174C122.447 108.832 122.247 107.46 121.846 107.06C121.661 106.875 121.415 106.782 121.107 106.782C120.244 106.782 119.458 107.445 118.749 108.77C118.071 110.065 117.732 111.621 117.732 113.44V126.2H119.396V127.032H106.589V126.2H109.132V105.857H106.589V105.025ZM163.257 127.495C159.281 127.495 156.291 126.477 154.288 124.443C152.315 122.378 151.329 119.527 151.329 115.89C151.329 112.222 152.439 109.417 154.658 107.476C156.908 105.534 159.759 104.563 163.211 104.563C170.208 104.563 173.567 108.077 173.29 115.104H160.252V116.907C160.252 119.928 160.637 122.209 161.408 123.75C162.178 125.291 163.519 126.061 165.43 126.061C169.005 126.061 171.348 124.15 172.458 120.328L173.29 120.467C172.704 122.686 171.641 124.412 170.1 125.645C168.589 126.878 166.309 127.495 163.257 127.495ZM160.298 114.179H165.06V111.914C165.06 109.417 164.906 107.722 164.598 106.828C164.32 105.904 163.735 105.441 162.841 105.441C161.978 105.441 161.331 105.935 160.899 106.921C160.499 107.876 160.298 109.541 160.298 111.914V114.179ZM178.497 105.025H189.639V109.279C190.132 107.861 190.887 106.72 191.904 105.857C192.921 104.994 194.463 104.563 196.528 104.563C201.305 104.563 203.694 107.137 203.694 112.284V126.2H206.283V127.032H193.199V126.2H195.094V111.174C195.094 109.325 194.971 108.138 194.725 107.614C194.478 107.06 194.031 106.782 193.384 106.782C192.397 106.782 191.519 107.429 190.749 108.724C190.009 110.018 189.639 111.59 189.639 113.44V126.2H191.627V127.032H178.497V126.2H181.04V105.857H178.497V105.025ZM211.424 127.495V119.219H211.979C212.781 121.9 213.859 123.78 215.216 124.859C216.572 125.938 218.267 126.477 220.301 126.477C223.445 126.477 225.017 125.476 225.017 123.472C225.017 122.609 224.632 121.962 223.861 121.53C222.659 120.852 221.118 120.328 219.238 119.959C217.142 119.404 215.385 118.664 213.967 117.739C212.272 116.63 211.424 114.873 211.424 112.469C211.424 110.065 212.164 108.154 213.644 106.736C215.123 105.287 217.096 104.563 219.561 104.563C221.072 104.563 222.628 104.917 224.231 105.626C224.817 105.873 225.264 105.996 225.572 105.996C225.88 105.996 226.142 105.888 226.358 105.673C226.574 105.457 226.836 105.056 227.144 104.47H227.652V111.544H227.097C225.526 107.537 223.091 105.534 219.793 105.534C218.344 105.534 217.265 105.796 216.556 106.32C215.847 106.813 215.493 107.445 215.493 108.215C215.493 108.678 215.601 109.048 215.817 109.325C216.032 109.572 216.202 109.756 216.325 109.88C216.448 110.003 216.649 110.142 216.926 110.296C217.204 110.419 217.435 110.527 217.62 110.619C217.805 110.681 218.082 110.774 218.452 110.897C218.853 111.02 219.145 111.097 219.33 111.128C221.426 111.652 222.937 112.114 223.861 112.515C224.786 112.885 225.664 113.347 226.496 113.902C228.192 115.073 229.039 116.969 229.039 119.589C229.039 122.178 228.269 124.15 226.728 125.507C225.187 126.832 223.075 127.495 220.394 127.495C218.483 127.495 216.633 127.048 214.846 126.154C214.476 125.907 214.183 125.784 213.967 125.784C213.289 125.784 212.627 126.354 211.979 127.495H211.424ZM244.971 116.167H246.312V112.607C246.312 109.679 246.142 107.722 245.803 106.736C245.495 105.719 244.878 105.21 243.954 105.21C243.399 105.21 242.89 105.364 242.428 105.673C241.997 105.95 241.781 106.351 241.781 106.875C241.781 107.368 241.873 107.876 242.058 108.4H243.214C243.461 109.048 243.584 109.834 243.584 110.758C243.584 111.652 243.199 112.438 242.428 113.116C241.658 113.763 240.687 114.087 239.515 114.087C236.865 114.087 235.539 112.808 235.539 110.25C235.539 106.458 238.76 104.563 245.202 104.563C248.87 104.563 251.397 105.195 252.784 106.458C254.202 107.691 254.911 109.972 254.911 113.301V122.686C254.911 124.289 255.358 125.09 256.252 125.09C257.3 125.09 257.916 123.503 258.101 120.328L258.795 120.375C258.671 123.087 258.163 124.952 257.269 125.969C256.375 126.986 254.911 127.495 252.877 127.495C249.178 127.495 247.051 126.354 246.497 124.073C246.096 125.245 245.495 126.108 244.694 126.662C243.892 127.217 242.721 127.495 241.18 127.495C236.618 127.495 234.337 125.63 234.337 121.9C234.337 119.712 235.2 118.217 236.926 117.416C238.683 116.584 241.365 116.167 244.971 116.167ZM243.122 121.854C243.122 123.457 243.199 124.489 243.353 124.952C243.538 125.414 243.861 125.645 244.324 125.645C244.817 125.645 245.264 125.26 245.664 124.489C246.096 123.688 246.312 122.594 246.312 121.207V116.907H245.988C244.077 116.907 243.122 118.31 243.122 121.114V121.854ZM273.859 105.025V123.056C273.859 128.111 272.98 131.964 271.223 134.614C269.497 137.265 266.662 138.591 262.717 138.591C260.158 138.591 258.294 138.082 257.122 137.065C255.92 136.048 255.319 134.861 255.319 133.505C255.319 132.149 255.72 131.101 256.521 130.361C257.323 129.652 258.324 129.298 259.526 129.298C260.728 129.298 261.638 129.621 262.254 130.269C262.84 130.947 263.133 131.686 263.133 132.488C263.133 133.289 263.04 134.06 262.855 134.799H261.098C260.605 135.632 260.544 136.34 260.913 136.926C261.252 137.512 261.884 137.805 262.809 137.805C263.764 137.805 264.412 137.265 264.751 136.186C265.09 135.138 265.259 132.95 265.259 129.621V105.857H262.254V105.025H273.859ZM269.467 101.835C267.833 101.835 266.662 101.419 265.953 100.587C265.275 99.7547 264.936 98.7221 264.936 97.4893C264.936 96.2564 265.306 95.2392 266.045 94.4379C266.816 93.6365 267.972 93.2358 269.513 93.2358C271.054 93.2358 272.225 93.6057 273.027 94.3454C273.828 95.0543 274.229 96.0869 274.229 97.443C274.229 98.7684 273.843 99.8317 273.073 100.633C272.302 101.434 271.1 101.835 269.467 101.835ZM292.701 127.495C288.725 127.495 285.735 126.477 283.732 124.443C281.759 122.378 280.773 119.527 280.773 115.89C280.773 112.222 281.882 109.417 284.102 107.476C286.352 105.534 289.203 104.563 292.655 104.563C299.651 104.563 303.011 108.077 302.733 115.104H289.696V116.907C289.696 119.928 290.081 122.209 290.852 123.75C291.622 125.291 292.963 126.061 294.874 126.061C298.449 126.061 300.792 124.15 301.901 120.328L302.733 120.467C302.148 122.686 301.084 124.412 299.543 125.645C298.033 126.878 295.752 127.495 292.701 127.495ZM289.742 114.179H294.504V111.914C294.504 109.417 294.35 107.722 294.042 106.828C293.764 105.904 293.179 105.441 292.285 105.441C291.422 105.441 290.774 105.935 290.343 106.921C289.942 107.876 289.742 109.541 289.742 111.914V114.179ZM308.46 127.495V119.219H309.015C309.816 121.9 310.895 123.78 312.251 124.859C313.607 125.938 315.302 126.477 317.337 126.477C320.48 126.477 322.052 125.476 322.052 123.472C322.052 122.609 321.667 121.962 320.897 121.53C319.695 120.852 318.153 120.328 316.273 119.959C314.177 119.404 312.42 118.664 311.003 117.739C309.307 116.63 308.46 114.873 308.46 112.469C308.46 110.065 309.2 108.154 310.679 106.736C312.159 105.287 314.131 104.563 316.597 104.563C318.107 104.563 319.664 104.917 321.266 105.626C321.852 105.873 322.299 105.996 322.607 105.996C322.915 105.996 323.177 105.888 323.393 105.673C323.609 105.457 323.871 105.056 324.179 104.47H324.688V111.544H324.133C322.561 107.537 320.126 105.534 316.828 105.534C315.379 105.534 314.301 105.796 313.592 106.32C312.883 106.813 312.528 107.445 312.528 108.215C312.528 108.678 312.636 109.048 312.852 109.325C313.068 109.572 313.237 109.756 313.361 109.88C313.484 110.003 313.684 110.142 313.962 110.296C314.239 110.419 314.47 110.527 314.655 110.619C314.84 110.681 315.117 110.774 315.487 110.897C315.888 111.02 316.181 111.097 316.366 111.128C318.462 111.652 319.972 112.114 320.897 112.515C321.821 112.885 322.7 113.347 323.532 113.902C325.227 115.073 326.075 116.969 326.075 119.589C326.075 122.178 325.304 124.15 323.763 125.507C322.222 126.832 320.111 127.495 317.429 127.495C315.518 127.495 313.669 127.048 311.881 126.154C311.511 125.907 311.218 125.784 311.003 125.784C310.325 125.784 309.662 126.354 309.015 127.495H308.46Z" fill="#5462F9"/>
<path d="M33.9112 31.4449C25.233 31.4449 20.8939 39.8152 20.8939 56.5558V63.1904C20.8939 71.1408 22.0417 77.3835 24.3372 81.9186C26.6327 86.3977 30.02 88.6372 34.4991 88.6372C40.6579 88.6372 46.3127 82.6464 51.4636 70.6649H52.9753L52.3875 89.3931H51.4636C51.1277 88.7772 50.8198 88.3573 50.5398 88.1333C50.2599 87.8534 49.84 87.7134 49.2801 87.7134C48.7762 87.7134 46.7606 88.1613 43.2333 89.0571C39.7061 89.897 36.1228 90.3169 32.4835 90.3169C23.3574 90.3169 16.2749 87.8534 11.2359 82.9264C6.2529 77.9994 3.76141 70.6089 3.76141 60.7549C3.76141 50.845 6.36488 43.2025 11.5718 37.8276C16.8347 32.4527 23.8893 29.7653 32.7355 29.7653C36.1508 29.7653 39.4821 30.2132 42.7294 31.109C46.0328 31.9488 47.9644 32.3687 48.5242 32.3687C49.0841 32.3687 49.5041 32.2568 49.784 32.0328C50.0639 31.7529 50.3719 31.305 50.7078 30.6891H51.6316L52.3035 48.9134H50.7918C48.2723 43.2585 45.6688 38.9474 42.9814 35.98C40.3499 32.9566 37.3265 31.4449 33.9112 31.4449ZM71.4876 43.7064C68.5203 43.7064 66.3927 42.9506 65.1049 41.4389C63.8732 39.9272 63.2573 38.0516 63.2573 35.812C63.2573 33.5725 63.9292 31.7249 65.2729 30.2692C66.6726 28.8135 68.7722 28.0856 71.5716 28.0856C74.3711 28.0856 76.4986 28.7575 77.9543 30.1012C79.41 31.3889 80.1379 33.2646 80.1379 35.728C80.1379 38.1356 79.438 40.0672 78.0383 41.5229C76.6386 42.9786 74.455 43.7064 71.4876 43.7064ZM58.8062 49.5012H79.382V87.9654H84.0851V89.4771H59.1422V87.9654H63.7612V51.0129H58.8062V49.5012ZM111.244 25.986C109.116 25.986 107.716 26.7979 107.045 28.4215C106.373 29.9892 106.037 32.5367 106.037 36.064V49.5012H117.122V51.0129H106.037V87.9654H116.283V89.4771H85.7969V87.9654H90.4159V51.0129H85.5449V49.5012H90.4159V49.1653C90.4159 41.103 91.9556 35.0002 95.035 30.857C98.1144 26.6579 103.265 24.5583 110.488 24.5583C115.247 24.5583 118.662 25.5101 120.734 27.4138C122.805 29.2614 123.841 31.4169 123.841 33.8804C123.841 36.3439 123.197 38.1915 121.909 39.4233C120.622 40.655 118.914 41.2709 116.787 41.2709C114.659 41.2709 113.007 40.739 111.832 39.6752C110.712 38.5555 110.152 37.2957 110.152 35.896C110.152 34.4403 110.32 33.0406 110.656 31.6969H113.847C114.967 27.8897 114.099 25.986 111.244 25.986ZM145.997 51.8528C143.925 51.8528 142.106 53.1965 140.538 55.8839C138.97 58.5714 138.186 61.7627 138.186 65.458V87.9654H144.149V89.4771H117.947V87.9654H122.566V51.0129H117.947V49.5012H138.186V57.5636C138.914 54.7082 140.314 52.5246 142.386 51.0129C144.457 49.4452 146.809 48.6614 149.44 48.6614C152.072 48.6614 154.199 49.4172 155.823 50.9289C157.502 52.3846 158.342 54.4842 158.342 57.2277C158.342 59.9151 157.726 61.9867 156.495 63.4424C155.263 64.8981 153.359 65.6259 150.784 65.6259C148.264 65.6259 146.389 64.7861 145.157 63.1064C143.981 61.4268 143.841 59.1033 144.737 56.1359H147.76C149.16 53.2805 148.572 51.8528 145.997 51.8528ZM178.454 69.7411H180.889V63.2744C180.889 57.9555 180.581 54.4002 179.965 52.6086C179.405 50.761 178.286 49.8372 176.606 49.8372C175.598 49.8372 174.674 50.1171 173.834 50.677C173.051 51.1809 172.659 51.9087 172.659 52.8605C172.659 53.7564 172.827 54.6802 173.163 55.632H175.262C175.71 56.8077 175.934 58.2354 175.934 59.9151C175.934 61.5388 175.234 62.9665 173.834 64.1982C172.435 65.374 170.671 65.9619 168.544 65.9619C163.729 65.9619 161.321 63.6383 161.321 58.9913C161.321 52.1047 167.172 48.6614 178.873 48.6614C185.536 48.6614 190.127 49.8092 192.647 52.1047C195.222 54.3442 196.51 58.4874 196.51 64.5342V81.5827C196.51 84.4941 197.322 85.9498 198.945 85.9498C200.849 85.9498 201.969 83.0664 202.305 77.2995L203.564 77.3835C203.34 82.3105 202.417 85.6978 200.793 87.5454C199.169 89.3931 196.51 90.3169 192.815 90.3169C186.096 90.3169 182.233 88.2453 181.225 84.1022C180.497 86.2297 179.405 87.7974 177.95 88.8052C176.494 89.813 174.366 90.3169 171.567 90.3169C163.281 90.3169 159.137 86.9296 159.137 80.155C159.137 76.1798 160.705 73.4643 163.841 72.0086C167.032 70.4969 171.903 69.7411 178.454 69.7411ZM175.094 80.071C175.094 82.9824 175.234 84.858 175.514 85.6978C175.85 86.5377 176.438 86.9576 177.278 86.9576C178.174 86.9576 178.985 86.2577 179.713 84.858C180.497 83.4023 180.889 81.4147 180.889 78.8952V71.0848H180.301C176.83 71.0848 175.094 73.6323 175.094 78.7273V80.071ZM221.438 72.0926C221.438 77.9714 221.746 81.8906 222.362 83.8502C222.978 85.7538 224.098 86.7056 225.721 86.7056C227.401 86.7056 228.829 85.9778 230.005 84.5221C231.236 83.0664 231.852 80.9108 231.852 78.0554V59.7471C231.852 57.3396 231.376 55.296 230.424 53.6164C229.473 51.9367 228.073 51.0969 226.225 51.0969C224.378 51.0969 223.118 52.3287 222.446 54.7921C221.774 57.2556 221.438 61.5668 221.438 67.7255V72.0926ZM232.944 89.4771L232.02 83.5983C230.117 88.0773 226.253 90.3169 220.431 90.3169C215.615 90.3169 211.864 88.5812 209.177 85.1099C206.545 81.6387 205.23 76.4597 205.23 69.5731C205.23 55.632 210.772 48.6614 221.858 48.6614C226.785 48.6614 230.033 50.0331 231.6 52.7766V28.0016H226.477V26.4899H247.473V87.9654H251.588V89.4771H232.944ZM280.889 72.9324V65.7939C280.889 60.363 280.581 56.4158 279.965 53.9523C279.405 51.4328 278.062 50.1731 275.934 50.1731C274.702 50.1731 273.694 50.537 272.911 51.2649C272.183 51.9367 271.651 53.0845 271.315 54.7082C270.811 57.2276 270.559 61.0629 270.559 66.2138V72.7645C270.559 78.8672 270.727 82.5345 271.063 83.7662C271.455 84.998 271.847 86.0058 272.239 86.7896C272.855 88.1333 274.058 88.8052 275.85 88.8052C278.034 88.8052 279.461 87.5454 280.133 85.026C280.637 83.2343 280.889 79.2032 280.889 72.9324ZM275.682 90.3169C268.683 90.3169 263.393 88.5252 259.809 84.942C256.226 81.3587 254.434 76.2358 254.434 69.5731C254.434 62.8545 256.338 57.7036 260.145 54.1203C264.008 50.481 269.411 48.6614 276.354 48.6614C283.296 48.6614 288.475 50.3411 291.891 53.7004C295.306 57.0037 297.014 62.0707 297.014 68.9013C297.014 83.1783 289.903 90.3169 275.682 90.3169ZM327.413 51.8528C325.341 51.8528 323.522 53.1965 321.954 55.8839C320.386 58.5714 319.602 61.7627 319.602 65.458V87.9654H325.565V89.4771H299.363V87.9654H303.982V51.0129H299.363V49.5012H319.602V57.5636C320.33 54.7082 321.73 52.5246 323.802 51.0129C325.873 49.4452 328.225 48.6614 330.856 48.6614C333.488 48.6614 335.615 49.4172 337.239 50.9289C338.918 52.3846 339.758 54.4842 339.758 57.2277C339.758 59.9151 339.142 61.9867 337.911 63.4424C336.679 64.8981 334.775 65.6259 332.2 65.6259C329.68 65.6259 327.805 64.7861 326.573 63.1064C325.397 61.4268 325.257 59.1033 326.153 56.1359H329.176C330.576 53.2805 329.988 51.8528 327.413 51.8528Z" fill="#313CB4"/>
</svg>
