<svg width="384" height="141" viewBox="0 0 384 141" fill="none" xmlns="http://www.w3.org/2000/svg">
<path d="M106.557 105.025H117.7V109.279C118.717 106.135 120.951 104.563 124.403 104.563C127.886 104.563 129.998 106.227 130.737 109.556C131.816 106.227 134.082 104.563 137.534 104.563C142.064 104.563 144.33 107.137 144.33 112.284V126.2H146.919V127.032H134.112V126.2H135.731V111.174C135.731 108.832 135.53 107.46 135.129 107.06C134.945 106.875 134.698 106.782 134.39 106.782C133.496 106.782 132.71 107.383 132.032 108.585C131.354 109.787 131.015 111.313 131.015 113.162V126.2H132.679V127.032H120.797V126.2H122.415V111.174C122.415 108.832 122.215 107.46 121.814 107.06C121.629 106.875 121.383 106.782 121.075 106.782C120.212 106.782 119.426 107.445 118.717 108.77C118.039 110.065 117.7 111.621 117.7 113.44V126.2H119.364V127.032H106.557V126.2H109.1V105.857H106.557V105.025ZM163.225 127.495C159.249 127.495 156.259 126.477 154.256 124.443C152.283 122.378 151.297 119.527 151.297 115.89C151.297 112.222 152.407 109.417 154.626 107.476C156.876 105.534 159.727 104.563 163.179 104.563C170.176 104.563 173.535 108.077 173.258 115.104H160.22V116.907C160.22 119.928 160.605 122.209 161.376 123.75C162.146 125.291 163.487 126.061 165.398 126.061C168.973 126.061 171.316 124.15 172.426 120.328L173.258 120.467C172.672 122.686 171.609 124.412 170.068 125.645C168.557 126.878 166.277 127.495 163.225 127.495ZM160.266 114.179H165.028V111.914C165.028 109.417 164.874 107.722 164.566 106.828C164.289 105.904 163.703 105.441 162.809 105.441C161.946 105.441 161.299 105.935 160.867 106.921C160.467 107.876 160.266 109.541 160.266 111.914V114.179ZM178.465 105.025H189.607V109.279C190.1 107.861 190.855 106.72 191.872 105.857C192.889 104.994 194.431 104.563 196.496 104.563C201.273 104.563 203.662 107.137 203.662 112.284V126.2H206.251V127.032H193.167V126.2H195.062V111.174C195.062 109.325 194.939 108.138 194.693 107.614C194.446 107.06 193.999 106.782 193.352 106.782C192.366 106.782 191.487 107.429 190.717 108.724C189.977 110.018 189.607 111.59 189.607 113.44V126.2H191.595V127.032H178.465V126.2H181.008V105.857H178.465V105.025ZM211.392 127.495V119.219H211.947C212.749 121.9 213.827 123.78 215.184 124.859C216.54 125.938 218.235 126.477 220.269 126.477C223.413 126.477 224.985 125.476 224.985 123.472C224.985 122.609 224.6 121.962 223.829 121.53C222.627 120.852 221.086 120.328 219.206 119.959C217.11 119.404 215.353 118.664 213.935 117.739C212.24 116.63 211.392 114.873 211.392 112.469C211.392 110.065 212.132 108.154 213.612 106.736C215.091 105.287 217.064 104.563 219.53 104.563C221.04 104.563 222.596 104.917 224.199 105.626C224.785 105.873 225.232 105.996 225.54 105.996C225.848 105.996 226.11 105.888 226.326 105.673C226.542 105.457 226.804 105.056 227.112 104.47H227.62V111.544H227.066C225.494 107.537 223.059 105.534 219.761 105.534C218.312 105.534 217.233 105.796 216.524 106.32C215.815 106.813 215.461 107.445 215.461 108.215C215.461 108.678 215.569 109.048 215.785 109.325C216 109.572 216.17 109.756 216.293 109.88C216.416 110.003 216.617 110.142 216.894 110.296C217.172 110.419 217.403 110.527 217.588 110.619C217.773 110.681 218.05 110.774 218.42 110.897C218.821 111.02 219.113 111.097 219.298 111.128C221.394 111.652 222.905 112.114 223.829 112.515C224.754 112.885 225.632 113.347 226.464 113.902C228.16 115.073 229.007 116.969 229.007 119.589C229.007 122.178 228.237 124.15 226.696 125.507C225.155 126.832 223.043 127.495 220.362 127.495C218.451 127.495 216.601 127.048 214.814 126.154C214.444 125.907 214.151 125.784 213.935 125.784C213.257 125.784 212.595 126.354 211.947 127.495H211.392ZM244.939 116.167H246.28V112.607C246.28 109.679 246.11 107.722 245.771 106.736C245.463 105.719 244.846 105.21 243.922 105.21C243.367 105.21 242.858 105.364 242.396 105.673C241.965 105.95 241.749 106.351 241.749 106.875C241.749 107.368 241.841 107.876 242.026 108.4H243.182C243.429 109.048 243.552 109.834 243.552 110.758C243.552 111.652 243.167 112.438 242.396 113.116C241.626 113.763 240.655 114.087 239.483 114.087C236.833 114.087 235.507 112.808 235.507 110.25C235.507 106.458 238.728 104.563 245.17 104.563C248.838 104.563 251.365 105.195 252.752 106.458C254.17 107.691 254.879 109.972 254.879 113.301V122.686C254.879 124.289 255.326 125.09 256.22 125.09C257.268 125.09 257.884 123.503 258.069 120.328L258.763 120.375C258.639 123.087 258.131 124.952 257.237 125.969C256.343 126.986 254.879 127.495 252.845 127.495C249.146 127.495 247.019 126.354 246.465 124.073C246.064 125.245 245.463 126.108 244.662 126.662C243.86 127.217 242.689 127.495 241.148 127.495C236.586 127.495 234.305 125.63 234.305 121.9C234.305 119.712 235.168 118.217 236.894 117.416C238.651 116.584 241.333 116.167 244.939 116.167ZM243.09 121.854C243.09 123.457 243.167 124.489 243.321 124.952C243.506 125.414 243.829 125.645 244.292 125.645C244.785 125.645 245.232 125.26 245.632 124.489C246.064 123.688 246.28 122.594 246.28 121.207V116.907H245.956C244.045 116.907 243.09 118.31 243.09 121.114V121.854ZM273.827 105.025V123.056C273.827 128.111 272.948 131.964 271.191 134.614C269.465 137.265 266.63 138.591 262.685 138.591C260.126 138.591 258.262 138.082 257.09 137.065C255.888 136.048 255.287 134.861 255.287 133.505C255.287 132.149 255.688 131.101 256.489 130.361C257.291 129.652 258.292 129.298 259.494 129.298C260.697 129.298 261.606 129.621 262.222 130.269C262.808 130.947 263.101 131.686 263.101 132.488C263.101 133.289 263.008 134.06 262.823 134.799H261.066C260.573 135.632 260.512 136.34 260.881 136.926C261.22 137.512 261.852 137.805 262.777 137.805C263.732 137.805 264.38 137.265 264.719 136.186C265.058 135.138 265.227 132.95 265.227 129.621V105.857H262.222V105.025H273.827ZM269.435 101.835C267.801 101.835 266.63 101.419 265.921 100.587C265.243 99.7547 264.904 98.7221 264.904 97.4893C264.904 96.2564 265.274 95.2392 266.013 94.4379C266.784 93.6365 267.94 93.2358 269.481 93.2358C271.022 93.2358 272.193 93.6057 272.995 94.3454C273.796 95.0543 274.197 96.0869 274.197 97.443C274.197 98.7684 273.811 99.8317 273.041 100.633C272.27 101.434 271.068 101.835 269.435 101.835ZM292.669 127.495C288.693 127.495 285.703 126.477 283.7 124.443C281.727 122.378 280.741 119.527 280.741 115.89C280.741 112.222 281.85 109.417 284.07 107.476C286.32 105.534 289.171 104.563 292.623 104.563C299.619 104.563 302.979 108.077 302.701 115.104H289.664V116.907C289.664 119.928 290.049 122.209 290.82 123.75C291.59 125.291 292.931 126.061 294.842 126.061C298.417 126.061 300.76 124.15 301.869 120.328L302.701 120.467C302.116 122.686 301.052 124.412 299.511 125.645C298.001 126.878 295.72 127.495 292.669 127.495ZM289.71 114.179H294.472V111.914C294.472 109.417 294.318 107.722 294.01 106.828C293.732 105.904 293.147 105.441 292.253 105.441C291.39 105.441 290.743 105.935 290.311 106.921C289.91 107.876 289.71 109.541 289.71 111.914V114.179ZM308.428 127.495V119.219H308.983C309.784 121.9 310.863 123.78 312.219 124.859C313.575 125.938 315.27 126.477 317.305 126.477C320.448 126.477 322.02 125.476 322.02 123.472C322.02 122.609 321.635 121.962 320.865 121.53C319.663 120.852 318.121 120.328 316.241 119.959C314.145 119.404 312.389 118.664 310.971 117.739C309.275 116.63 308.428 114.873 308.428 112.469C308.428 110.065 309.168 108.154 310.647 106.736C312.127 105.287 314.099 104.563 316.565 104.563C318.075 104.563 319.632 104.917 321.234 105.626C321.82 105.873 322.267 105.996 322.575 105.996C322.883 105.996 323.145 105.888 323.361 105.673C323.577 105.457 323.839 105.056 324.147 104.47H324.656V111.544H324.101C322.529 107.537 320.094 105.534 316.796 105.534C315.347 105.534 314.269 105.796 313.56 106.32C312.851 106.813 312.496 107.445 312.496 108.215C312.496 108.678 312.604 109.048 312.82 109.325C313.036 109.572 313.205 109.756 313.329 109.88C313.452 110.003 313.652 110.142 313.93 110.296C314.207 110.419 314.438 110.527 314.623 110.619C314.808 110.681 315.085 110.774 315.455 110.897C315.856 111.02 316.149 111.097 316.334 111.128C318.43 111.652 319.94 112.114 320.865 112.515C321.789 112.885 322.668 113.347 323.5 113.902C325.195 115.073 326.043 116.969 326.043 119.589C326.043 122.178 325.272 124.15 323.731 125.507C322.19 126.832 320.079 127.495 317.397 127.495C315.486 127.495 313.637 127.048 311.849 126.154C311.479 125.907 311.186 125.784 310.971 125.784C310.293 125.784 309.63 126.354 308.983 127.495H308.428Z" fill="#FFB6D9"/>
<path d="M33.8793 31.4449C25.201 31.4449 20.8619 39.8152 20.8619 56.5558V63.1904C20.8619 71.1408 22.0097 77.3835 24.3052 81.9186C26.6007 86.3977 29.9881 88.6372 34.4671 88.6372C40.6259 88.6372 46.2807 82.6464 51.4317 70.6649H52.9434L52.3555 89.3931H51.4317C51.0957 88.7772 50.7878 88.3573 50.5079 88.1333C50.2279 87.8534 49.808 87.7134 49.2481 87.7134C48.7442 87.7134 46.7286 88.1613 43.2014 89.0571C39.6741 89.897 36.0908 90.3169 32.4516 90.3169C23.3254 90.3169 16.2429 87.8534 11.2039 82.9264C6.22092 77.9994 3.72943 70.6089 3.72943 60.7549C3.72943 50.845 6.3329 43.2025 11.5398 37.8276C16.8028 32.4527 23.8573 29.7653 32.7035 29.7653C36.1188 29.7653 39.4501 30.2132 42.6975 31.109C46.0008 31.9488 47.9324 32.3687 48.4923 32.3687C49.0522 32.3687 49.4721 32.2568 49.752 32.0328C50.032 31.7529 50.3399 31.305 50.6758 30.6891H51.5996L52.2715 48.9134H50.7598C48.2403 43.2585 45.6369 38.9474 42.9494 35.98C40.3179 32.9566 37.2946 31.4449 33.8793 31.4449ZM71.4557 43.7064C68.4883 43.7064 66.3607 42.9506 65.073 41.4389C63.8412 39.9272 63.2253 38.0516 63.2253 35.812C63.2253 33.5725 63.8972 31.7249 65.2409 30.2692C66.6406 28.8135 68.7402 28.0856 71.5396 28.0856C74.3391 28.0856 76.4666 28.7575 77.9223 30.1012C79.378 31.3889 80.1059 33.2646 80.1059 35.728C80.1059 38.1356 79.406 40.0672 78.0063 41.5229C76.6066 42.9786 74.4231 43.7064 71.4557 43.7064ZM58.7743 49.5012H79.35V87.9654H84.0531V89.4771H59.1102V87.9654H63.7292V51.0129H58.7743V49.5012ZM111.212 25.986C109.084 25.986 107.684 26.7979 107.013 28.4215C106.341 29.9892 106.005 32.5367 106.005 36.064V49.5012H117.09V51.0129H106.005V87.9654H116.251V89.4771H85.7649V87.9654H90.3839V51.0129H85.5129V49.5012H90.3839V49.1653C90.3839 41.103 91.9236 35.0002 95.003 30.857C98.0824 26.6579 103.233 24.5583 110.456 24.5583C115.215 24.5583 118.63 25.5101 120.702 27.4138C122.773 29.2614 123.809 31.4169 123.809 33.8804C123.809 36.3439 123.165 38.1915 121.878 39.4233C120.59 40.655 118.882 41.2709 116.755 41.2709C114.627 41.2709 112.975 40.739 111.8 39.6752C110.68 38.5555 110.12 37.2957 110.12 35.896C110.12 34.4403 110.288 33.0406 110.624 31.6969H113.815C114.935 27.8897 114.067 25.986 111.212 25.986ZM145.965 51.8528C143.893 51.8528 142.074 53.1965 140.506 55.8839C138.938 58.5714 138.154 61.7627 138.154 65.458V87.9654H144.117V89.4771H117.915V87.9654H122.534V51.0129H117.915V49.5012H138.154V57.5636C138.882 54.7082 140.282 52.5246 142.354 51.0129C144.425 49.4452 146.777 48.6614 149.408 48.6614C152.04 48.6614 154.167 49.4172 155.791 50.9289C157.47 52.3846 158.31 54.4842 158.31 57.2277C158.31 59.9151 157.694 61.9867 156.463 63.4424C155.231 64.8981 153.327 65.6259 150.752 65.6259C148.232 65.6259 146.357 64.7861 145.125 63.1064C143.949 61.4268 143.809 59.1033 144.705 56.1359H147.728C149.128 53.2805 148.54 51.8528 145.965 51.8528ZM178.422 69.7411H180.857V63.2744C180.857 57.9555 180.549 54.4002 179.933 52.6086C179.373 50.761 178.254 49.8372 176.574 49.8372C175.566 49.8372 174.642 50.1171 173.802 50.677C173.019 51.1809 172.627 51.9087 172.627 52.8605C172.627 53.7564 172.795 54.6802 173.131 55.632H175.23C175.678 56.8077 175.902 58.2354 175.902 59.9151C175.902 61.5388 175.202 62.9665 173.802 64.1982C172.403 65.374 170.639 65.9619 168.512 65.9619C163.697 65.9619 161.289 63.6383 161.289 58.9913C161.289 52.1047 167.14 48.6614 178.841 48.6614C185.504 48.6614 190.095 49.8092 192.615 52.1047C195.19 54.3442 196.478 58.4874 196.478 64.5342V81.5827C196.478 84.4941 197.29 85.9498 198.913 85.9498C200.817 85.9498 201.937 83.0664 202.273 77.2995L203.532 77.3835C203.308 82.3105 202.385 85.6978 200.761 87.5454C199.137 89.3931 196.478 90.3169 192.783 90.3169C186.064 90.3169 182.201 88.2453 181.193 84.1022C180.465 86.2297 179.373 87.7974 177.918 88.8052C176.462 89.813 174.334 90.3169 171.535 90.3169C163.249 90.3169 159.105 86.9296 159.105 80.155C159.105 76.1798 160.673 73.4643 163.809 72.0086C167 70.4969 171.871 69.7411 178.422 69.7411ZM175.062 80.071C175.062 82.9824 175.202 84.858 175.482 85.6978C175.818 86.5377 176.406 86.9576 177.246 86.9576C178.142 86.9576 178.953 86.2577 179.681 84.858C180.465 83.4023 180.857 81.4147 180.857 78.8952V71.0848H180.269C176.798 71.0848 175.062 73.6323 175.062 78.7273V80.071ZM221.406 72.0926C221.406 77.9714 221.714 81.8906 222.33 83.8502C222.946 85.7538 224.066 86.7056 225.689 86.7056C227.369 86.7056 228.797 85.9778 229.973 84.5221C231.204 83.0664 231.82 80.9108 231.82 78.0554V59.7471C231.82 57.3396 231.344 55.296 230.392 53.6164C229.441 51.9367 228.041 51.0969 226.193 51.0969C224.346 51.0969 223.086 52.3287 222.414 54.7921C221.742 57.2556 221.406 61.5668 221.406 67.7255V72.0926ZM232.912 89.4771L231.988 83.5983C230.085 88.0773 226.221 90.3169 220.399 90.3169C215.584 90.3169 211.832 88.5812 209.145 85.1099C206.513 81.6387 205.198 76.4597 205.198 69.5731C205.198 55.632 210.74 48.6614 221.826 48.6614C226.753 48.6614 230.001 50.0331 231.568 52.7766V28.0016H226.445V26.4899H247.441V87.9654H251.556V89.4771H232.912ZM280.857 72.9324V65.7939C280.857 60.363 280.549 56.4158 279.933 53.9523C279.373 51.4328 278.03 50.1731 275.902 50.1731C274.67 50.1731 273.662 50.537 272.879 51.2649C272.151 51.9367 271.619 53.0845 271.283 54.7082C270.779 57.2276 270.527 61.0629 270.527 66.2138V72.7645C270.527 78.8672 270.695 82.5345 271.031 83.7662C271.423 84.998 271.815 86.0058 272.207 86.7896C272.823 88.1333 274.026 88.8052 275.818 88.8052C278.002 88.8052 279.429 87.5454 280.101 85.026C280.605 83.2343 280.857 79.2032 280.857 72.9324ZM275.65 90.3169C268.651 90.3169 263.361 88.5252 259.777 84.942C256.194 81.3587 254.402 76.2358 254.402 69.5731C254.402 62.8545 256.306 57.7036 260.113 54.1203C263.976 50.481 269.379 48.6614 276.322 48.6614C283.264 48.6614 288.443 50.3411 291.859 53.7004C295.274 57.0037 296.982 62.0707 296.982 68.9013C296.982 83.1783 289.871 90.3169 275.65 90.3169ZM327.381 51.8528C325.309 51.8528 323.49 53.1965 321.922 55.8839C320.354 58.5714 319.57 61.7627 319.57 65.458V87.9654H325.533V89.4771H299.331V87.9654H303.95V51.0129H299.331V49.5012H319.57V57.5636C320.298 54.7082 321.698 52.5246 323.77 51.0129C325.841 49.4452 328.193 48.6614 330.824 48.6614C333.456 48.6614 335.583 49.4172 337.207 50.9289C338.886 52.3846 339.726 54.4842 339.726 57.2277C339.726 59.9151 339.11 61.9867 337.879 63.4424C336.647 64.8981 334.743 65.6259 332.168 65.6259C329.648 65.6259 327.773 64.7861 326.541 63.1064C325.365 61.4268 325.225 59.1033 326.121 56.1359H329.144C330.544 53.2805 329.956 51.8528 327.381 51.8528Z" fill="#F774B9"/>
</svg>
